<svg width="18" height="18" viewBox="0 0 18 18" fill="none" xmlns="http://www.w3.org/2000/svg">
<path d="M5.46449 5.46447C5.75737 5.17158 6.23226 5.17158 6.52515 5.46447L9.00002 7.93934L11.4749 5.46447C11.7678 5.17158 12.2427 5.17158 12.5356 5.46447C12.8284 5.75735 12.8284 6.23224 12.5356 6.52513L10.0607 9L12.5356 11.4749C12.8284 11.7678 12.8284 12.2427 12.5356 12.5355C12.2427 12.8284 11.7678 12.8284 11.4749 12.5355L9.00002 10.0607L6.52515 12.5355C6.23226 12.8284 5.75737 12.8284 5.46449 12.5355C5.17161 12.2427 5.1716 11.7678 5.46449 11.4749L7.93936 9L5.46449 6.52513C5.1716 6.23224 5.17161 5.75735 5.46449 5.46447Z" fill="#212121" fill-opacity="0.5"/>
<rect x="0.5" y="0.5" width="17" height="17" rx="3.5" stroke="black" stroke-opacity="0.5"/>
</svg>
